<svg xmlns="http://www.w3.org/2000/svg" width="197" height="184.71" viewBox="0 0 197 184.71">
  <defs>
    <style>
      .cls-1 {
        fill: #aebfcd;
      }

      .cls-2 {
        font-size: 24px;
        font-family: AmaticSC-Bold, Amatic SC;
        font-weight: 700;
      }

      .cls-3, .cls-4, .cls-5, .cls-6, .cls-7, .cls-8, .cls-9 {
        fill: none;
        stroke: #000;
        stroke-miterlimit: 10;
      }

      .cls-4 {
        stroke-dasharray: 2.07 2.07;
      }

      .cls-5 {
        stroke-dasharray: 2.05 2.05;
      }

      .cls-6 {
        stroke-dasharray: 1.95 1.95;
      }

      .cls-7 {
        stroke-dasharray: 1.84 1.84;
      }

      .cls-8 {
        stroke-dasharray: 1.9 1.9;
      }

      .cls-9 {
        stroke-dasharray: 2.14 2.14;
      }
    </style>
  </defs>
  <title>Logo</title>
  <g id="Layer_2" data-name="Layer 2">
    <path class="cls-1" d="M71.12,7.48s35.77-5.11,59.61,1.7c0,0,39.17,8.52,52.79,29s13.63,44.28,13.63,44.28,3.4,20.43-3.41,52.79-47.68,49.39-47.68,49.39S101.78,194.82,83,188s-1.7,0-1.7,0-44.28-13.63-56.2-30.66c0,0-27.25-23.84-23.85-56.2,0,0-3.4-35.77,17-61.31S71.12,7.48,71.12,7.48Z" transform="translate(-1 -5.64)"/>
  </g>
  <g id="Layer_3" data-name="Layer 3">
    <text class="cls-2" transform="translate(53 134.56)">WHERE ARE YOU?</text>
    <g>
      <g>
        <line class="cls-3" x1="29" y1="56.51" x2="29.32" y2="57.46"/>
        <line class="cls-4" x1="29.97" y1="59.43" x2="42.74" y2="97.73"/>
        <polyline class="cls-3" points="43.06 98.71 43.38 99.66 43.7 98.71"/>
        <line class="cls-4" x1="44.35" y1="96.74" x2="57.12" y2="58.44"/>
        <polyline class="cls-3" points="57.45 57.46 57.76 56.51 58.08 57.46"/>
        <line class="cls-4" x1="58.73" y1="59.43" x2="71.5" y2="97.73"/>
        <polyline class="cls-3" points="71.83 98.71 72.14 99.66 72.43 98.7"/>
        <line class="cls-5" x1="73.03" y1="96.74" x2="84.63" y2="58.45"/>
        <line class="cls-3" x1="84.93" y1="57.47" x2="85.22" y2="56.51"/>
      </g>
      <g>
        <line class="cls-3" x1="89.25" y1="99" x2="89.61" y2="98.07"/>
        <line class="cls-6" x1="90.32" y1="96.25" x2="105.53" y2="57.2"/>
        <polyline class="cls-3" points="105.88 56.29 106.25 55.36 106.61 56.29"/>
        <line class="cls-6" x1="107.32" y1="58.11" x2="122.53" y2="97.16"/>
        <line class="cls-3" x1="122.88" y1="98.07" x2="123.24" y2="99"/>
      </g>
      <g>
        <line class="cls-3" x1="93.29" y1="89.64" x2="94.29" y2="89.64"/>
        <line class="cls-7" x1="96.13" y1="89.64" x2="117.29" y2="89.64"/>
        <line class="cls-3" x1="118.21" y1="89.64" x2="119.21" y2="89.64"/>
      </g>
      <g>
        <line class="cls-3" x1="130.62" y1="55.86" x2="131.14" y2="56.72"/>
        <line class="cls-8" x1="132.12" y1="58.35" x2="145.31" y2="80.33"/>
        <polyline class="cls-3" points="145.8 81.15 146.31 82.01 146.83 81.15"/>
        <line class="cls-8" x1="147.8" y1="79.52" x2="161" y2="57.53"/>
        <line class="cls-3" x1="161.49" y1="56.72" x2="162" y2="55.86"/>
      </g>
      <g>
        <line class="cls-3" x1="146.31" y1="99" x2="146.31" y2="98"/>
        <line class="cls-9" x1="146.31" y1="95.86" x2="146.31" y2="84.08"/>
        <line class="cls-3" x1="146.31" y1="83.01" x2="146.31" y2="82.01"/>
      </g>
    </g>
  </g>
</svg>
